<svg xmlns="http://www.w3.org/2000/svg" viewBox="0 0 150 150" role="img" aria-labelledby="pipr-mark-title">
  <title id="pipr-mark-title">Pipr mark for dark backgrounds</title>
  <path fill="#CBED64" d="m87 3.6h-31c-22.7 0-44.8 17.5-44.8 39.2v104.1h13.9v-101.9c0.1-13.1 12.5-27 28.6-27.1h33.3c17.3 0 37.3 13.3 37.7 42.1 0 18.2-10.9 30.9-17.7 36.2-5.6 4.2-12.9 7.4-21.5 7.6h-19.2l-15.6 15.1 35-0.1c24.1 0.1 52.9-18.8 53-58 0-25.6-18.7-57.2-51.7-57.2z" />
  <path fill="#EEF0E5" d="m86.4 34.2h-24.9c-10.4 0-21.4 9.2-21.4 20v53.8l18.9-16.5c1.5-1.4 3.9-3.1 6.5-3.1h19.5c14.3 0 24.8-12.2 24.7-27.2 0-14-9.7-26.7-23.3-27zm-4.3 41.8h-17.2c-3.8 0.1-5.9 1.8-7.3 3.2l-5.8 4.9v-24.6c0-6.5 5.4-14.1 13.9-14.1h16.8c7.4 0 14.3 5.9 14.3 14.5s-5.9 16.1-14.7 16.1z" />
</svg>
